Coordinates
version=1
nRows=9
nColumns=63
inDegrees=yes

Units are S.I. units (second, meters, Newtons, ...)
If the header above contains a line with 'inDegrees', this indicates whether rotational values are in degrees (yes) or radians (no).

endheader
time	pelvis_tilt	pelvis_list	pelvis_rotation	pelvis_tx	pelvis_ty	pelvis_tz	hip_flexion_r	hip_adduction_r	hip_rotation_r	knee_angle_r	knee_angle_r_beta	ankle_angle_r	subtalar_angle_r	mtp_angle_r	hip_flexion_l	hip_adduction_l	hip_rotation_l	knee_angle_l	knee_angle_l_beta	ankle_angle_l	subtalar_angle_l	mtp_angle_l	L5_S1_Flex_Ext	L5_S1_Lat_Bending	L5_S1_axial_rotation	L4_L5_Flex_Ext	L4_L5_Lat_Bending	L4_L5_axial_rotation	L3_L4_Flex_Ext	L3_L4_Lat_Bending	L3_L4_axial_rotation	L2_L3_Flex_Ext	L2_L3_Lat_Bending	L2_L3_axial_rotation	L1_L2_Flex_Ext	L1_L2_Lat_Bending	L1_L2_axial_rotation	L1_T12_Flex_Ext	L1_T12_Lat_Bending	L1_T12_axial_rotation	Abs_r3	Abs_r2	Abs_r1	Abs_t1	Abs_t2	neck_flexion	neck_bending	neck_rotation	arm_flex_r	arm_add_r	arm_rot_r	elbow_flex_r	pro_sup_r	wrist_flex_r	wrist_dev_r	arm_flex_l	arm_add_l	arm_rot_l	elbow_flex_l	pro_sup_l	wrist_flex_l	wrist_dev_l
      1.60000000	      1.01800074	     -8.64119173	     89.44158833	      0.17126557	      0.96172292	      0.31338371	     -2.33716389	     -1.78963822	      9.50519667	      1.21811920	      0.02126019	     19.33705468	     -4.09836408	      0.00000000	     -0.92508011	     -1.96943265	    -10.69139358	      2.22378391	      0.03881235	     21.89132327	     12.78537018	      0.00000000	      0.23142415	      0.20583518	      0.68080927	      0.42977778	      0.27376079	      0.72335985	      0.38020673	      0.50046765	      0.72335985	      0.26449466	      0.50046765	      0.59570812	      0.21490046	      0.41973910	      0.55315754	      0.13223576	      0.31883869	      0.51060696	      1.65303953	      2.32844871	      3.78645694	      0.00000000	      0.00000000	     25.06041367	      0.62951056	      3.27072585	     11.83404180	    -13.05456913	     66.77437631	     47.54087070	     79.37157155	     -3.05346799	      2.29147879	     15.99214824	    -10.74356840	     65.69961127	     48.16711228	     60.58464639	     10.17675739	     18.84143995
      1.61666667	      0.93725910	     -8.71026903	     89.49413122	      0.17111228	      0.96145525	      0.31380578	     -2.28190203	     -1.88681575	      9.84054815	      1.22956168	      0.02145990	     19.05160839	     -4.85415155	      0.00000000	     -0.79414663	     -1.86836876	    -10.22891638	      2.32076097	      0.04050492	     22.07894448	     12.18172629	      0.00000000	      0.23247859	      0.19614723	      0.66375767	      0.43173598	      0.26087582	      0.70524253	      0.38193907	      0.47691238	      0.70524253	      0.26569978	      0.47691238	      0.58078796	      0.21587962	      0.39998343	      0.53930311	      0.13283826	      0.30383206	      0.49781825	      1.66057130	      2.21885671	      3.69162105	      0.00000000	      0.00000000	     25.16421300	      0.72013941	      3.37504049	     12.30278821	    -13.03412812	     67.69869334	     47.43447756	     79.19078390	     -3.28106416	      2.16882343	     15.91754159	    -10.75096621	     65.29408756	     48.16763343	     61.76608118	     10.59977096	     18.58901646
      1.63333333	      0.83845798	     -8.80157758	     89.42821047	      0.17113636	      0.96122443	      0.31442441	     -2.12953997	     -2.00641828	      9.80283734	      1.27546673	      0.02226109	     19.09263292	     -4.77681836	      0.00000000	     -0.63518638	     -1.75114305	    -10.14424345	      2.43099676	      0.04242890	     22.24452085	     11.89352607	      0.00000000	      0.23445169	      0.18085264	      0.67812651	      0.43540024	      0.24053401	      0.72050942	      0.38518068	      0.43972511	      0.72050942	      0.26795484	      0.43972511	      0.59336070	      0.21771184	      0.36879470	      0.55097779	      0.13396570	      0.28014074	      0.50859489	      1.67466498	      2.04584124	      3.77153623	      0.00000000	      0.00000000	     25.29625874	      0.73707714	      3.08915190	     12.79287838	    -13.01919095	     68.57683075	     47.38100508	     78.56490339	     -3.24452351	      2.29732759	     16.09032661	    -10.83804649	     65.65816539	     48.16632462	     61.78861772	     10.73236596	     18.42976969
      1.65000000	      0.83295082	     -8.85999387	     90.03664511	      0.17039258	      0.96108939	      0.31536843	     -2.04683244	     -2.01402779	      7.76711832	      1.32424342	      0.02311241	     19.63902564	     -2.71371804	      0.00000000	     -0.28293983	     -1.77809474	     -9.64195669	      2.82109842	      0.04923746	     22.48012131	     11.90216043	      0.00000000	      0.22280171	      0.17550663	      0.56803771	      0.41376505	      0.23342381	      0.60354006	      0.36604092	      0.42672681	      0.60354006	      0.25464007	      0.42672681	      0.49703299	      0.20689366	      0.35789311	      0.46153064	      0.12730889	      0.27185976	      0.42602828	      1.59145030	      1.98536605	      3.15925532	      0.00000000	      0.00000000	     25.52020342	      0.78656154	      3.03692661	     13.09066488	    -13.03848371	     68.96149963	     47.48203525	     76.65415312	     -3.20827472	      2.58193224	     16.38911372	    -10.99233523	     66.39338284	     48.31119220	     60.90560529	     10.19167672	     18.54746488
      1.66666667	      0.80440996	     -9.05242682	     89.41714884	      0.17085060	      0.96083262	      0.31605177	     -1.64228791	     -2.07576389	      8.30316265	      1.40599400	      0.02453922	     19.82988067	     -2.46507317	      0.00000000	     -0.14705335	     -1.71123280	    -10.42077837	      2.78844966	      0.04866763	     22.51767784	     12.03954710	      0.00000000	      0.24132879	      0.18016044	      0.66251053	      0.44817170	      0.23961338	      0.70391743	      0.39647907	      0.43804209	      0.70391743	      0.27581468	      0.43804209	      0.57969671	      0.22409792	      0.36738316	      0.53828980	      0.13789527	      0.27906852	      0.49688289	      1.72378742	      2.03801090	      3.68468480	      0.00000000	      0.00000000	     25.57988923	      0.79469563	      3.25829414	     13.37656996	    -13.22184017	     69.40919765	     47.72624597	     78.25167255	     -3.64521539	      2.39091077	     16.16775681	    -10.83557164	     65.68369056	     48.05530161	     62.61963978	     11.43873708	     18.74967667
      1.68333333	      0.87105327	     -9.20148855	     89.46751976	      0.17054022	      0.96069687	      0.31701065	     -1.30396718	     -2.03523778	      6.57733051	      1.59232414	      0.02779130	     20.49858949	      0.11004335	      0.00000000	      0.16006345	     -1.78034831	    -10.62499907	      3.00147704	      0.05238566	     22.62155390	     12.25572451	      0.00000000	      0.24591068	      0.19359368	      0.63676425	      0.45668072	      0.25747959	      0.67656202	      0.40400665	      0.47070367	      0.67656202	      0.28105131	      0.47070367	      0.55716872	      0.22835266	      0.39477623	      0.51737095	      0.14051336	      0.29987661	      0.47757319	      1.75651538	      2.18997043	      3.54149173	      0.00000000	      0.00000000	     25.75669098	      0.76436308	      3.50357782	     13.30969552	    -13.36489467	     68.69883028	     48.11068764	     79.23124946	     -3.27169496	      3.07000371	     16.22333023	    -10.77428578	     65.76055947	     47.91972400	     62.89021275	     11.83252350	     18.92750703
      1.70000000	      0.88420088	     -9.32173492	     89.54927684	      0.17020028	      0.96055960	      0.31774176	     -1.06330513	     -2.03008932	      5.96649461	      1.69684223	      0.02961548	     20.76900725	      0.99476796	      0.00000000	      0.40634538	     -1.78554922	    -10.58263256	      3.16202097	      0.05518768	     22.66953186	     12.23216804	      0.00000000	      0.24983612	      0.19598493	      0.62794449	      0.46397067	      0.26065995	      0.66719102	      0.41045577	      0.47651775	      0.66719102	      0.28553771	      0.47651775	      0.54945143	      0.23199782	      0.39965246	      0.51020490	      0.14275636	      0.30358065	      0.47095837	      1.78455445	      2.21702070	      3.49243889	      0.00000000	      0.00000000	     25.91223495	      0.67506737	      3.29501201	     12.88911002	    -13.49368267	     67.46419082	     48.59241621	     79.63161350	     -3.26071321	      3.73665935	     16.36149893	    -10.70822204	     66.07061602	     47.74744476	     62.69834312	     12.29332829	     19.19871045
      1.71666667	      0.96390494	     -9.40603127	     89.65680751	      0.16979514	      0.96045631	      0.31824263	     -0.91630764	     -1.93305250	      6.38166103	      1.72578233	      0.03012058	     20.60352347	      0.27596165	      0.00000000	      0.59227106	     -1.85927027	    -10.65766252	      3.29306728	      0.05747487	     22.76517474	     12.40254785	      0.00000000	      0.25227179	      0.21012205	      0.60100433	      0.46849395	      0.27946233	      0.63856710	      0.41445733	      0.51089076	      0.63856710	      0.28832143	      0.51089076	      0.52587879	      0.23425959	      0.42848089	      0.48831602	      0.14414810	      0.32547906	      0.45075325	      1.80195220	      2.37694268	      3.34260577	      0.00000000	      0.00000000	     26.03817252	      0.68936184	      3.52999199	     12.52355697	    -13.62982232	     66.22362646	     49.05424317	     80.70042970	     -2.45433866	      4.71105578	     16.39695660	    -10.64976263	     66.23687340	     47.74411161	     63.17172484	     12.22774611	     19.26216709
      1.73333333	      1.01394695	     -9.33706407	     90.22582240	      0.16906743	      0.96061535	      0.31876516	     -0.95945474	     -1.86019141	      5.16745487	      1.83375428	      0.03200505	     20.69822508	      1.06184556	      0.00000000	      0.76539125	     -1.93602029	    -10.26273952	      3.62790134	      0.06331882	     22.93449466	     12.54029790	      0.00000000	      0.22919884	      0.21303625	      0.50150944	      0.42564516	      0.28333821	      0.53285378	      0.37655077	      0.51797634	      0.53285378	      0.26195135	      0.51797634	      0.43882076	      0.21283404	      0.43442352	      0.40747642	      0.13096421	      0.32999315	      0.37613208	      1.63714436	      2.40990865	      2.78924504	      0.00000000	      0.00000000	     26.21554783	      0.71973024	      3.51465588	     12.41700316	    -13.67325072	     65.95256107	     49.23812792	     78.86118984	     -2.42759233	      5.03413851	     16.73436370	    -10.73270768	     67.02341740	     47.86193428	     62.49441966	     11.68826056	     19.36102192
